# xmcd
#
# Track frame offsets:
#	150
#	37603
#	82875
#	127932
#	177348
#
# Disc length: 2714 seconds
#
# Revision: 0
# Processed by: cddbd v1.5.2PL0 Copyright (c) Steve Scherf et al.
# Submitted via: audiograbber 1.83.01
#
DISCID=2b0a9805
DTITLE=Grateful Dead - 93-05-27 Cal Expo Amphitheatre, Sacramento CA
DYEAR=1900
DGENRE=
TTITLE0=Space
TTITLE1=The Other One
TTITLE2=Wharf Rat
TTITLE3=Sugar Magnolia
TTITLE4=Gloria
EXTD=
EXTT0=
EXTT1=
EXTT2=
EXTT3=
EXTT4=
PLAYORDER=
